# xmcd
#
# Track frame offsets: 
#        150
#        12927
#        24535
#        37570
#        48950
#        61675
#        72875
#        85367
#        96587
#        108717
#        119790
#        130120
#        139890
#        149260
#        160220
#        170509
#        182225
#        192520
#        201567
#        212122
#        223400
#        233440
#        243610
#        254152
#
# Disc length: 3528 seconds
#
# Revision: 1
# Processed by: cddbd v1.5.2PL0 Copyright (c) Steve Scherf et al.
# Submitted via: ExactAudioCopy v0.95b4
#
DISCID=760dc618
DTITLE=Chet Atkins - I've Been Working On The Guitar (The Legend Begin
DTITLE=s)
DYEAR=1900
DGENRE=Jazz
TTITLE0=Guitar Blues
TTITLE1=Canned Heat
TTITLE2=Standing Room Only
TTITLE3=The Nashville Jump
TTITLE4=I'm Pickin' The Blues
TTITLE5=I've Been Working On The Guitar
TTITLE6=Telling My Troubles To My Old Guitar
TTITLE7=Galloping On The Guitar
TTITLE8=Centipede Boogie
TTITLE9=The Old Buck Dance
TTITLE10=Main Street Breakdown
TTITLE11=Mountain Melody
TTITLE12=Sweet Bunch Of Daisies
TTITLE13=The 3rd Man Theme
TTITLE14=St. Louis Blues
TTITLE15=Hangover Blues
TTITLE16=Black Mountain Rag
TTITLE17=Chinatown, My Chinatown
TTITLE18=High Rockin' Swing
TTITLE19=Fig Leaf Rag
TTITLE20=The Bells Of St. Mary's
TTITLE21=Country Gentleman
TTITLE22=12th Street Rag
TTITLE23=City Slicker
EXTD=
EXTT0=
EXTT1=
EXTT2=
EXTT3=
EXTT4=
EXTT5=
EXTT6=
EXTT7=
EXTT8=
EXTT9=
EXTT10=
EXTT11=
EXTT12=
EXTT13=
EXTT14=
EXTT15=
EXTT16=
EXTT17=
EXTT18=
EXTT19=
EXTT20=
EXTT21=
EXTT22=
EXTT23=
PLAYORDER=
